<?xml version="1.0" encoding="utf-8"?>
<!-- Generator: Adobe Illustrator 24.1.3, SVG Export Plug-In . SVG Version: 6.00 Build 0)  -->
<svg version="1.1" id="Layer_1" xmlns="http://www.w3.org/2000/svg" xmlns:xlink="http://www.w3.org/1999/xlink" x="0px" y="0px"
	 viewBox="0 0 1920 1080" style="enable-background:new 0 0 1920 1080;" xml:space="preserve">
<style type="text/css">
	.st0{fill:#1E1E1E;}
	.st1{fill:#6366F1;}
	.st2{fill:#2563EB;}
</style>
<g>
	<g>
		<g>
			<path class="st0" d="M583.03,571.26l8.03-18.02c9.99,8.03,25.86,13.73,41.2,13.73c19.44,0,27.65-6.96,27.65-16.23
				c0-26.93-74.2-9.28-74.2-55.65c0-20.16,16.05-37.28,50.3-37.28c14.98,0,30.68,3.92,41.56,11.06l-7.31,18.02
				c-11.24-6.6-23.55-9.81-34.43-9.81c-19.27,0-27.11,7.49-27.11,16.94c0,26.58,74.02,9.28,74.02,55.12
				c0,19.98-16.23,37.1-50.48,37.1C612.82,586.24,593.38,580.18,583.03,571.26z"/>
			<path class="st0" d="M816.69,459.6v124.86H793.5v-53.51h-64.57v53.51h-23.19V459.6h23.19v51.55h64.57V459.6H816.69z"/>
			<path class="st0" d="M841.3,522.03c0-36.92,28.54-64.21,67.25-64.21c38.71,0,67.25,27.11,67.25,64.21
				c0,37.1-28.54,64.21-67.25,64.21C869.84,586.24,841.3,558.95,841.3,522.03z M952.42,522.03c0-25.51-18.73-43.88-43.88-43.88
				c-25.15,0-43.88,18.37-43.88,43.88s18.73,43.88,43.88,43.88C933.69,565.91,952.42,547.53,952.42,522.03z"/>
			<path class="st0" d="M1178.95,459.6l-41.38,124.86h-24.61l-30.86-92.4l-31.39,92.4h-24.79L984.52,459.6h24.08l31.04,94.89
				l32.28-94.89h21.4l31.57,95.43l31.93-95.43H1178.95z"/>
		</g>
	</g>
	<g>
		<g>
			<path class="st1" d="M1187.68,522.03c0-37.28,28.54-64.21,66.89-64.21c20.33,0,37.82,7.31,49.41,20.87l-14.98,14.09
				c-9.1-9.81-20.33-14.63-33.35-14.63c-25.86,0-44.59,18.19-44.59,43.88c0,25.69,18.73,43.88,44.59,43.88
				c13.02,0,24.26-4.82,33.35-14.8l14.98,14.27c-11.59,13.56-29.07,20.87-49.59,20.87C1216.22,586.24,1187.68,559.31,1187.68,522.03
				z"/>
			<path class="st1" d="M1404.57,555.56h-62.43l-12.31,28.9h-23.9l56.19-124.86h22.83l56.37,124.86h-24.26L1404.57,555.56z
				 M1396.9,537.37l-23.55-54.58l-23.37,54.58H1396.9z"/>
			<path class="st1" d="M1446.66,571.26l8.03-18.02c9.99,8.03,25.86,13.73,41.2,13.73c19.44,0,27.65-6.96,27.65-16.23
				c0-26.93-74.2-9.28-74.2-55.65c0-20.16,16.05-37.28,50.3-37.28c14.98,0,30.68,3.92,41.56,11.06l-7.31,18.02
				c-11.24-6.6-23.55-9.81-34.43-9.81c-19.27,0-27.11,7.49-27.11,16.94c0,26.58,74.02,9.28,74.02,55.12
				c0,19.98-16.23,37.1-50.48,37.1C1476.44,586.24,1457,580.18,1446.66,571.26z"/>
			<path class="st1" d="M1663.01,565.01v19.44h-93.65V459.6h91.15v19.44h-67.96v32.46h60.29v19.09h-60.29v34.43H1663.01z"/>
		</g>
	</g>
	<path class="st0" d="M334.94,657.48c-18.02,0-35.37,0.81-52.61-0.25c-14.38-0.89-24.95-14.42-24.98-29.71
		c-0.09-48.84,0.45-97.7-0.36-146.53c-0.23-14.25,2.74-25.17,13.17-35.58c19.22-19.17,36.99-39.8,55.24-59.93
		c2.74-3.03,5.66-4.36,9.74-4.35c38.8,0.11,77.6-0.05,116.4,0.12c19.31,0.09,30.62,7.93,34.59,23.22c0.3,1.14,0.68,2.31,0.69,3.46
		c0.04,21.25,0.03,42.51,0.03,63.93c-9.12,8.41-18.16,16.75-27.32,25.19c-1.87-2.35-1.16-4.59-1.17-6.63
		c-0.06-22.26-0.02-44.51-0.05-66.77c-0.01-9.1-2.96-12.1-11.98-12.12c-29.15-0.04-58.3-0.03-87.45,0c-1.93,0-3.95-0.31-5.81,0.83
		c-1.45,1.86-0.95,4.11-0.96,6.21c-0.06,10.24,0.04,20.48-0.05,30.72c-0.17,18.56-13.05,31.54-31.65,31.83
		c-9.06,0.14-18.12,0.01-27.18,0.04c-2.13,0.01-4.32-0.25-6.23,0.74c-1.52,2.09-1.03,4.33-1.03,6.43
		c-0.03,42.15-0.03,84.29-0.01,126.44c0.01,10.4,2.6,13.01,12.81,13.03c12.21,0.03,24.42-0.01,36.63,0.02c2.13,0,4.33-0.3,6.96,0.95
		C340.55,638.34,337.9,647.69,334.94,657.48z"/>
	<path class="st1" d="M338.83,698.83c6.06-23.5,12.08-46.84,17.98-69.68c2.96-1.91,5.59-1.35,8.1-1.35
		c26.99-0.04,53.97,0,80.96-0.03c9.44-0.01,12.35-2.9,12.38-12.36c0.05-19.5,0.02-39,0-58.5c0-1.33-0.15-2.67-0.84-4.24
		c-15.93,21.75-29.5,44.67-36.99,72.18c-24.91-32.13-49.91-62.48-89.95-74.4c11.36-17.4,32.11-23.26,49.6-13.96
		c10.45,5.56,20.44,11.88,28.75,20.49c1.07,1.11,2.01,2.47,4.09,2.82c38.13-37.67,72.68-79.79,120.86-106.34
		c-0.84,4.46-3.92,7.24-6.44,10.32c-11.99,14.62-24.05,29.18-36.23,43.64c-2.81,3.34-4.1,6.78-4.08,11.23
		c0.15,35.45,0.09,70.91,0.07,106.36c-0.01,20.45-11.9,32.8-32.48,33.19c-16.74,0.32-33.48,0.17-50.23,0.03
		c-4.16-0.03-7.58,1.1-10.93,3.52c-16.14,11.62-32.39,23.1-48.63,34.59C343.27,697.44,341.95,699.13,338.83,698.83z"/>
	<path class="st2" d="M319.13,507.54c0.01,6.38-5.1,11.55-11.53,11.65c-6.22,0.1-11.71-5.22-11.81-11.44
		c-0.11-6.55,5.44-12.16,11.87-12.01C313.98,495.9,319.12,501.18,319.13,507.54z"/>
	<path class="st0" d="M319.12,549.74c-0.13,6.35-5.6,11.65-11.86,11.49c-6.38-0.16-11.58-5.56-11.48-11.9
		c0.1-6.28,5.57-11.52,11.94-11.43C314.16,537.99,319.26,543.28,319.12,549.74z"/>
	<path class="st1" d="M319.13,591.85c-0.13,6.46-5.41,11.49-11.9,11.35c-6.39-0.15-11.63-5.59-11.44-11.88
		c0.19-6.38,5.61-11.58,11.95-11.46C313.98,579.97,319.26,585.53,319.13,591.85z"/>
</g>
</svg>
